<?xml version="1.0" standalone="no"?><!DOCTYPE svg PUBLIC "-//W3C//DTD SVG 1.1//EN" "http://www.w3.org/Graphics/SVG/1.1/DTD/svg11.dtd"><svg t="1712682910685" class="icon" viewBox="0 0 1070 1024" version="1.1" xmlns="http://www.w3.org/2000/svg" p-id="4725" xmlns:xlink="http://www.w3.org/1999/xlink" width="208.984375" height="200"><path d="M493.707636 53.527273c-178.920727 18.245818-304.779636 92.951273-377.669818 224.209454-36.770909 69.771636-56.506182 132.002909-59.205818 186.693818-2.746182 54.690909 0 107.147636 8.145455 157.277091h127.162181V416.581818c-1.117091-5.725091 5.864727-14.010182 20.945455-24.948363 15.034182-10.938182 42.170182-25.739636 81.314909-44.404364l87.505455 44.404364c4.561455 2.792727 6.842182 8.005818 6.842181 15.732363v107.333818h26.670546l4.096-356.119272 23.924363-17.826909 152.436364 56.087272c10.007273 3.677091 14.754909 8.657455 14.336 15.034182-0.418909 6.376727-0.418909 127.813818 0 364.311273h34.164364v-172.218182l21.922909-17.128727 153.786182 61.533091v163.560727h171.613091c14.987636 3.072 20.898909 18.292364 17.687272 45.614545-4.747636 41.006545-81.268364 179.153455-163.281454 247.482182-94.347636 69.259636-179.805091 108.916364-256.372364 118.923637H446.836364c-132.096-12.753455-253.765818-87.272727-364.962909-223.511273-6.423273-22.341818-3.025455-37.329455 10.193454-45.102546 13.218909-7.773091 27.368727-3.444364 42.402909 12.986182 68.375273 109.847273 171.380364 175.709091 308.968727 197.538909h136.704c180.084364-42.356364 299.287273-139.450182 357.562182-291.188363v-5.492364H785.221818c-14.103273 1.396364-21.410909-8.192-21.876363-28.718545-0.465455-20.48-0.465455-71.773091 0-153.786182l-60.183273-22.295273v138.472727c-1.861818 20.061091-9.309091 30.347636-22.574546 30.766546-13.218909 0.465455-48.733091 0.465455-106.589091 0-14.615273 1.861818-21.922909-6.842182-21.922909-25.972364V241.338182l-75.869091-25.320727-4.096 339.781818c-4.096 9.541818-12.567273 14.568727-25.274181 14.987636-12.753455 0.465455-41.890909 0.465455-87.505455 0-17.733818 4.561455-26.624-7.726545-26.624-36.910545V434.082909l-38.353454-21.178182-41.704728 21.178182v228.305455l-19.781818 17.780363H33.326545c-10.007273 0.884364-18.478545-18.618182-25.320727-58.461091-10.286545-59.810909-19.176727-176.034909 30.72-327.773091C105.099636 153.832727 265.774545 12.986182 437.294545 0h149.038546c117.992727 17.314909 224.628364 74.519273 319.906909 171.566545 75.170909 108.916364 114.548364 199.214545 118.225455 270.708364v82.013091c-1.861818 8.657455-10.519273 13.963636-25.972364 15.732364-15.499636 1.861818-25.320727-9.309091-29.416727-33.512728-6.795636-141.730909-50.269091-246.085818-130.513455-313.064727-120.32-100.491636-164.770909-123.252364-270.010182-139.915636h-74.845091z" fill="#d81e06" p-id="4726"></path></svg>